<svg xmlns="http://www.w3.org/2000/svg" width="2101.207"  height="350.443" viewBox="0 0 2101.207 350.443">
  <g id="wave" transform="translate(212.306 -653.728)" opacity="0.07">
    <g id="Group_2686" data-name="Group 2686" transform="translate(-190.623 654.228)">
      <path id="Path_38458" data-name="Path 38458" d="M1203.8,783.675q-3.363,0-6.731-.032a663.851,663.851,0,0,1-128.707-13.556c-41.367-8.618-74.7-23.866-106.943-38.613-23.283-10.649-47.36-21.661-74.639-30.361a228,228,0,0,0-44.513-9.41,284.727,284.727,0,0,0-43.874-1.325c-29.132,1.22-57.473,5.951-87.478,10.959-20.327,3.393-41.345,6.9-62.49,9.178-50.594,5.447-102.832,8.237-153.349,10.935-37.941,2.027-77.175,4.123-115.4,7.329-35.065,2.94-70.811,6.747-105.382,10.429-78.078,8.315-158.813,16.913-237.327,16.14-42.271-.416-80.532-3.439-116.972-9.24A582.86,582.86,0,0,1-194.9,716.089l-.578-.217.647.028c180.791,7.908,369.828,9.326,561.862,4.216,101.938-2.713,185.767-8.29,263.818-17.551,23.867-2.832,49.919-8.435,77.5-14.367,32.029-6.889,65.149-14.012,96.906-17.127,35.971-3.529,64.889-1.238,88.409,7,30.5,10.688,51.838,23.264,72.475,35.426,31.608,18.628,61.463,36.223,119.284,43.169,44.893,5.393,93.171,6.064,143.493,1.992,44.32-3.585,90.406-10.7,140.894-21.738,15.61-3.413,38.81-9.665,68.183-17.579,93.848-25.287,241.666-65.116,342.311-65.116,50.18,0,88.612,9.891,102.823,36.418l.075.14-.2,0c-27.175-.347-54.906-1.323-81.722-2.267-72.425-2.549-147.316-5.185-220.091,4.2-51.955,6.7-96.243,24.41-139.073,41.539-36.241,14.494-73.716,29.481-115.823,37.845A630.5,630.5,0,0,1,1203.8,783.675ZM812.15,689.882a270.507,270.507,0,0,1,30.153,1.623,228.385,228.385,0,0,1,44.578,9.424c27.3,8.706,51.381,19.722,74.674,30.375,32.223,14.739,65.544,29.98,106.875,38.59a663.452,663.452,0,0,0,128.637,13.549c44.981.431,88.439-3.452,129.157-11.54,42.077-8.357,79.538-23.339,115.766-37.827,42.847-17.136,87.157-34.857,139.154-41.56,72.8-9.386,147.709-6.749,220.15-4.2,26.748.942,54.4,1.915,81.513,2.265-14.223-26.325-52.536-36.164-102.488-36.164-100.567,0-248.378,39.827-342.23,65.115-29.377,7.916-52.581,14.168-68.2,17.583-50.5,11.046-96.605,18.158-140.941,21.745-50.345,4.074-98.648,3.4-143.564-1.993-57.892-6.955-87.774-24.566-119.409-43.21-20.626-12.156-41.952-24.724-72.422-35.4-23.471-8.224-52.341-10.51-88.26-6.986-31.736,3.114-64.848,10.235-96.867,17.121-27.589,5.934-53.648,11.539-77.533,14.373-78.061,9.262-161.9,14.84-263.85,17.553q-112.86,3-224.049,3c-114.654,0-227.435-2.4-337.192-7.19A582.848,582.848,0,0,0-79.957,745.913c36.422,5.8,74.667,8.819,116.919,9.235,78.494.778,159.219-7.824,237.287-16.138,34.572-3.682,70.321-7.49,105.389-10.43,38.233-3.207,77.47-5.3,115.415-7.329,50.512-2.7,102.746-5.488,153.331-10.934,21.134-2.276,42.147-5.783,62.468-9.175,30.016-5.01,58.368-9.743,87.523-10.964Q805.427,689.883,812.15,689.882Z" transform="translate(195.475 -654.228)" stroke="#707070" stroke-width="1"/>
    </g>
    <g id="Group_2687" data-name="Group 2687" transform="translate(-191.648 754.779)">
      <path id="Path_38459" data-name="Path 38459" d="M1147.921,807.349c-19.1,0-38.218-.729-57.128-2.205-40.069-3.129-78.1-9.5-113.022-18.945-37.084-10.025-70.1-23.375-98.118-39.68-8.991-5.232-15.946-11.364-22.671-17.294-11.527-10.165-22.415-19.766-42.023-23.742-27.524-5.581-68.285,1.176-104.247,7.138-14.736,2.443-28.655,4.751-40.333,5.971-102.367,10.692-205.626,20.4-306.912,28.846-100.759,8.4-203.98,15.932-306.8,22.374-6.987.438-14.238.93-21.251,1.407C-5.487,774-47.786,776.873-88.035,773c-45.835-4.409-81.154-17.145-107.977-38.933l-.239-.2.354.028c81.985,6.495,169.014,9.659,265.8,9.659,2.36,0,4.71,0,7.083-.006,96.012-.152,191.876-3.387,272.989-6.532,107-4.149,196.73-8.928,286.851-18.769,22.382-2.443,43.706-6.275,64.328-9.981,31.949-5.742,62.129-11.165,91.157-10.434,32.447.816,59.363,9.212,84.7,26.422,61.223,41.58,133.826,66.055,215.788,72.746,73.935,6.034,154.79-2.349,240.319-24.919,30.867-8.146,59.673-18.414,87.532-28.343,50.183-17.888,97.586-34.784,155.41-40,7.137-.643,27.409-.735,58.624-.264,28.932.436,64.43,1.318,99.954,2.483,65.848,2.159,137.266,5.5,140.233,8.405a.285.285,0,0,1,.082.367l-.032.057-.083,0c-44.3,2.2-90.364.278-134.912-1.578-57.584-2.4-117.126-4.877-173.623,1.482-54.986,6.19-105.229,24.241-153.818,41.7-30.838,11.081-62.727,22.538-95.587,30.888C1264.925,800.494,1206.484,807.349,1147.921,807.349ZM790.824,703.2a123.3,123.3,0,0,1,24.2,2.09c19.69,3.993,30.6,13.617,42.158,23.806,6.717,5.922,13.661,12.047,22.631,17.266,28,16.292,60.987,29.631,98.044,39.65,34.907,9.436,72.912,15.806,112.959,18.933,76.836,6,157.1-.341,225.993-17.849,32.844-8.347,64.726-19.8,95.557-30.879,48.606-17.463,98.867-35.521,153.894-41.715,56.524-6.363,116.082-3.883,173.678-1.484,44.508,1.853,90.526,3.77,134.781,1.582a.175.175,0,0,0-.063-.112c-2.4-2.348-57.365-5.616-140.031-8.326-65.115-2.135-142.806-3.639-158.533-2.22-57.78,5.213-105.162,22.1-155.327,39.982-27.865,9.932-56.677,20.2-87.559,28.351-85.565,22.581-166.461,30.969-240.437,24.93-82.02-6.7-154.673-31.188-215.939-72.8-25.292-17.177-52.151-25.556-84.532-26.37-28.99-.733-59.152,4.69-91.084,10.428-20.628,3.707-41.958,7.54-64.352,9.985C546.735,728.293,457,733.073,349.99,737.222c-81.116,3.145-176.984,6.38-273,6.532-99.516.153-188.67-2.991-272.56-9.627C-168.825,755.761-133.633,768.413-88,772.8c40.221,3.869,82.505,1,123.4-1.783,7.013-.477,14.265-.97,21.252-1.407,102.815-6.442,206.034-13.969,306.789-22.374,101.282-8.448,204.539-18.153,306.905-28.845,11.665-1.219,25.579-3.526,40.311-5.968C737.171,708.029,766.3,703.2,790.824,703.2Z" transform="translate(196.252 -697.772)" stroke="#707070" stroke-width="1"/>
    </g>
    <g id="Group_2688" data-name="Group 2688" transform="translate(-195.52 808.045)">
      <path id="Path_38460" data-name="Path 38460" d="M1169.336,835.073a784.086,784.086,0,0,1-83.465-4.616,848.649,848.649,0,0,1-127.086-23.431c-40.12-10.665-77.368-24.085-107.719-38.811-22.367-10.852-41.972-18.621-59.937-23.751a222.542,222.542,0,0,0-52.444-8.573c-34.07-1.426-68.939,4.417-123.008,14.069a1157.14,1157.14,0,0,1-135.736,15.722c-27.1,1.615-55.376,2.548-88.055,2.868-35.27,2.025-72.256,3.2-111.544,3.529-22.548,2.039-47.926,4.784-75.088,7.723-76.178,8.242-162.527,17.572-238.1,17.206-41.338-.207-74.478-3.269-101.319-9.362-14.757-3.35-27.592-7.678-38.152-12.863-11.2-5.5-20.2-12.138-26.73-19.729l-.14-.162.258.008c57.151,1.848,114.994,4.749,170.932,7.555,72.069,3.614,146.592,7.352,219.959,8.841,30.779.625,60.171.82,88.362.583,24.423-2.208,45.525-3.585,61.959-3.479,17.737.115,34.158.1,49.592-.05q10.548-.606,20.9-1.314c52.726-3.6,106.238-13.82,157.987-23.7,56.327-10.752,114.57-21.872,171.1-24.214,24.627-1.02,44.919,1.77,63.859,8.783,16.942,6.273,30.869,15.209,45.613,24.671,12.879,8.264,26.2,16.809,42.8,24.489,27.3,12.627,61.926,22.468,102.922,29.248,37.961,6.278,79.659,9.689,123.934,10.137,85.7.864,170.5-9.8,226.834-28.542,19.522-6.495,38.187-13.378,56.239-20.033,54.274-20.014,105.54-38.917,170.847-44.238,18.334-1.493,89.659-5.595,157.222-5.6h.07c38.634,0,69.639,1.335,92.163,3.968,27.543,3.22,42.362,8.409,44.047,15.424l.028.116h-.16c-39.211.247-81.034-2.977-121.477-6.1-67.706-5.226-137.718-10.63-201.285-.614-52.4,8.256-97.723,29.008-141.561,49.077-23.681,10.841-48.168,22.052-73.506,31.176-32.7,11.777-71.412,19.313-115.048,22.4Q1192.965,835.073,1169.336,835.073ZM728.372,735.478c3.465,0,6.9.07,10.33.213a222.92,222.92,0,0,1,52.524,8.586c17.982,5.135,37.6,12.911,59.988,23.771,30.332,14.717,67.561,28.13,107.662,38.789a848.214,848.214,0,0,0,127.034,23.422c45.417,4.873,88.977,5.892,129.465,3.03,43.6-3.083,82.281-10.612,114.956-22.379,25.325-9.12,49.806-20.327,73.482-31.166,43.857-20.078,89.207-40.839,141.646-49.1,63.61-10.024,133.643-4.618,201.369.61,40.38,3.117,82.124,6.341,121.286,6.1-1.8-6.862-16.531-11.957-43.794-15.144-22.509-2.632-53.5-3.966-92.121-3.966h-.07c-67.552,0-138.861,4.1-157.194,5.6-65.26,5.317-116.5,24.212-170.757,44.218-18.052,6.657-36.72,13.54-56.247,20.036C1293.7,806.133,1213.1,816.7,1130.7,816.7c-3.24,0-6.475-.016-9.721-.049-44.293-.448-86.01-3.861-123.988-10.142-41.026-6.785-75.682-16.634-103.006-29.273-16.621-7.689-29.946-16.239-42.832-24.508-14.731-9.453-28.646-18.381-45.558-24.643-18.9-7-39.148-9.781-63.723-8.762-56.506,2.341-114.737,13.458-171.05,24.208-51.76,9.881-105.283,20.1-158.03,23.705q-8.3.567-16.727,1.069c30.913-.357,57.922-1.278,83.852-2.822a1157.066,1157.066,0,0,0,135.694-15.717C664.265,741.081,697.384,735.478,728.372,735.478Zm-927.054,19.63c6.5,7.5,15.421,14.063,26.512,19.509,10.538,5.173,23.351,9.493,38.083,12.837,26.816,6.088,59.932,9.148,101.242,9.354,75.562.382,161.893-8.963,238.061-17.2,26.2-2.835,50.756-5.491,72.7-7.506-27.465.207-56.05.006-85.964-.6-73.373-1.489-147.9-5.227-219.97-8.842C-83.867,759.853-141.618,756.956-198.682,755.108Zm539.158,13.486c-15.584,0-35.164,1.263-57.658,3.263,36.811-.344,71.584-1.431,104.839-3.27-14.2.116-29.243.118-45.377.013C341.685,768.6,341.082,768.594,340.476,768.594Z" transform="translate(199.188 -718.041)" stroke="#707070" stroke-width="1"/>
    </g>
    <g id="Group_2689" data-name="Group 2689" transform="translate(-203.343 871.024)">
      <path id="Path_38461" data-name="Path 38461" d="M1131.865,851.328c-27.174,0-55.62-1.408-85.085-4.243a1023.916,1023.916,0,0,1-125.3-20.019c-39.682-8.892-76.427-19.6-109.216-31.843-77.059-28.761-162.019-33.837-248.659-30.355-22.2,4.793-43.482,9-65.023,12.291a600.28,600.28,0,0,1-102.379,7.3c-21.284-.327-42.727-.507-64.212-.584q-17.512,1.379-34.844,2.429c-11.782.7-34.055,3.084-62.252,6.1-75.249,8.047-195.188,20.872-290.971,20.874-78.606,0-140.937-8.633-149.006-35.631l-.04-.134.183.012c128.028,8.654,259.824,7.668,387.279,6.714,49.176-.368,99.527-.745,149.637-.564,26.384-2.077,53.174-4.651,81.033-7.329,49.957-4.8,100.535-9.661,150.552-11.673,11.248-2.429,22.734-5.009,34.607-7.7,45.405-10.289,80.9-12.746,115.1-7.967,34.524,4.826,67.031,16.927,105.217,33.613,32.329,14.127,70.326,26.094,112.935,35.571a914.146,914.146,0,0,0,131.623,19.082c96.307,7.015,186.066-1.147,252.744-22.981,16.926-5.542,33.319-11.179,49.174-16.63,27.954-9.611,54.612-18.777,82.024-26.743q5.776-1.968,11.609-3.811c30.816-9.715,59.877-15.518,88.84-17.739q1.533-.117,3.068-.227,9.836-1.191,19.773-2.055c6.687-.582,15.013-1.41,24.653-2.369,38.3-3.809,96.175-9.565,149.335-9.679,29.235-.068,53.808,1.63,73.007,5.03,22.6,4,38.468,10.488,47.159,19.278l.156.157-.264,0c-44.2.26-89.224-2.909-132.766-5.977-59.384-4.185-120.759-8.509-181.022-4.189a616.983,616.983,0,0,0-87.129,17.2q-8.216,2.208-16.314,4.566c-23.429,7.978-46.2,17.405-68.318,26.564-28.221,11.683-57.4,23.765-88.8,33.3C1245.494,844.474,1191.8,851.327,1131.865,851.328ZM609.19,763.707c70.777,0,139.654,7.62,203.2,31.337,32.313,12.061,70.064,23.067,109.173,31.83a1023.614,1023.614,0,0,0,125.254,20.013c94.407,9.084,178.455,3.514,243.056-16.108,31.384-9.533,60.558-21.612,88.772-33.293,20.809-8.615,42.191-17.468,64.159-25.131-25.907,7.667-51.235,16.375-77.726,25.484-15.857,5.451-32.251,11.088-49.178,16.631-66.72,21.848-156.527,30.016-252.88,23a914.557,914.557,0,0,1-131.673-19.089C888.714,808.9,850.7,796.922,818.35,782.787c-38.163-16.675-70.645-28.768-105.131-33.588-34.15-4.773-69.608-2.318-114.97,7.962-11.485,2.6-22.61,5.1-33.506,7.462Q587.054,763.744,609.19,763.707Zm-813.967,14.026c2.182,7.12,8.349,13.245,18.33,18.206,9.371,4.657,22.352,8.413,38.581,11.164,28.609,4.848,68.411,6.754,118.3,5.664,90.637-1.979,195.22-13.164,264.424-20.565,28.2-3.017,50.479-5.4,62.269-6.1q16.15-.961,32.4-2.239c-49.3-.159-98.806.211-147.184.573C54.945,785.388-76.8,786.374-204.777,777.733ZM334.4,783.68q31.028.123,61.808.576a600.261,600.261,0,0,0,102.319-7.293c21.173-3.238,42.1-7.354,63.887-12.047-49.632,2.039-99.8,6.861-149.372,11.625C386.026,779.138,360.017,781.637,334.4,783.68Zm1212.035-34.037c-28.6,2.276-57.31,8.051-87.736,17.645q-3.591,1.131-7.158,2.314,5.857-1.668,11.772-3.259A620.861,620.861,0,0,1,1546.437,749.643Zm57.41-2.3c42.847,0,85.784,3.026,127.736,5.982,43.447,3.062,88.372,6.222,132.474,5.977-8.687-8.669-24.447-15.077-46.847-19.044-19.177-3.4-43.71-5.09-72.944-5.024-53.145.114-111.01,5.869-149.3,9.678-9.64.958-17.967,1.786-24.657,2.369q-7.88.685-15.674,1.573C1570.981,747.788,1587.409,747.343,1603.847,747.343Z" transform="translate(205.12 -735.032)" stroke="#707070" stroke-width="1"/>
    </g>
    <g id="Group_2690" data-name="Group 2690" transform="translate(-210.691 892.878)">
      <path id="Path_38462" data-name="Path 38462" d="M1193.467,867.679c-32.688,0-66.446-3.675-103.288-9.38-40.493-6.27-82.026-9.6-122.24-12.782-32.811-.757-65.347-2.77-95.433-8.913q-13.525-1.659-26.932-3.677c-26.789-4.067-52.384-9.338-77.136-14.435C714.692,807.425,663.927,796.97,604.223,798.6c-30.125.823-58.26,2.452-85.471,4.027-56.9,3.294-110.637,6.406-173.987,1.776-86.533-6.325-166.319,2.554-250.79,11.956-13.26,1.475-26.971,3-40.635,4.456-7.621.812-15.695,1.745-24.243,2.733-37.619,4.348-84.439,9.758-127.85,8.442-23.8-.722-44.019-3.308-61.8-7.907-20.18-5.22-36.967-13.145-49.889-23.555l-.251-.2.367.036c57.061,5.534,115.668,7.407,174.581,7.407,62.745,0,125.838-2.123,187.86-4.21,78.61-2.644,159.9-5.38,237.986-3.659,44.828.988,84.3-4.674,126.095-10.669,25.427-3.646,51.719-7.418,79.2-9.516a363.711,363.711,0,0,1,102.11,6.181c30.684,6.166,59.167,15.513,89.321,25.409,21.75,7.137,44.24,14.518,68.934,21.152q8.255,2.217,16.8,3.951c31.292,3.834,62.958,6.341,93.807,8.784l1.584.125c14.308.33,28.664.421,42.9.511,29.927.19,60.873.386,89.211,2.9,50.805,4.508,87.157,5.12,121.55,2.044,38.626-3.454,75.412-11.882,115.765-26.523,47.6-17.271,90.455-30.219,131.005-39.583A800.4,800.4,0,0,1,1607.1,764.85c7.107-.381,17.112-1.168,28.7-2.08,33.775-2.657,84.818-6.67,129.8-5.749,24.693.507,45.107,2.467,60.676,5.827,18.284,3.945,30.491,9.944,36.279,17.829l.1.142-.216.006c-46.548,1.364-93.867-.767-139.625-2.828-45.115-2.032-91.764-4.133-137.593-2.876-92.719,2.543-159.482,28.8-236.788,59.212-7.3,2.87-14.838,5.836-22.428,8.793C1280.431,860.876,1237.938,867.679,1193.467,867.679ZM971.436,845.593c39.138,3.1,79.453,6.419,118.8,12.511,86.906,13.456,156.641,15.614,235.65-15.156,7.59-2.955,15.132-5.922,22.426-8.791,77.335-30.42,144.124-56.691,236.9-59.236,45.842-1.258,92.5.844,137.618,2.876,45.68,2.058,92.914,4.185,139.38,2.834-5.8-7.766-17.91-13.685-36.013-17.591-15.548-3.355-35.939-5.313-60.609-5.819-44.964-.922-96,3.092-129.764,5.748-11.587.912-21.594,1.7-28.7,2.081a799.984,799.984,0,0,0-138.659,19.808c-40.538,9.361-83.377,22.306-130.968,39.572-40.382,14.651-77.2,23.085-115.851,26.542-34.415,3.078-70.786,2.466-121.614-2.045-28.324-2.513-59.261-2.709-89.182-2.9C997.775,845.945,984.59,845.862,971.436,845.593Zm-96.291-8.669c28.21,5.516,58.517,7.505,89.13,8.3C934.937,842.9,904.891,840.5,875.145,836.924ZM616.593,798.232c54.468,0,101.9,9.768,151.917,20.068,24.748,5.1,50.339,10.365,77.118,14.432q12.177,1.848,24.483,3.372-7.319-1.555-14.436-3.459c-24.7-6.637-47.2-14.019-68.952-21.157-30.145-9.893-58.618-19.237-89.282-25.4a363.326,363.326,0,0,0-102.013-6.176c-27.473,2.1-53.758,5.868-79.179,9.514-41.807,6-81.295,11.665-126.154,10.672-78.081-1.721-159.361,1.014-237.966,3.659-62.013,2.087-125.134,4.21-187.872,4.21-58.808,0-117.276-1.864-174.248-7.373,12.859,10.286,29.522,18.124,49.529,23.3,17.754,4.592,37.942,7.175,61.72,7.9,43.386,1.317,90.19-4.093,127.8-8.439,8.55-.988,16.624-1.922,24.247-2.734,13.662-1.454,27.373-2.98,40.633-4.456,84.488-9.4,164.289-18.285,250.856-11.957,63.326,4.628,117.055,1.517,173.94-1.776,27.212-1.576,55.351-3.205,85.48-4.028Q610.464,798.232,616.593,798.232Z" transform="translate(210.691 -756.886)" stroke="#707070" stroke-width="1"/>
    </g>
  </g>
</svg>
